<?xml version="1.0" encoding="UTF-8" standalone="no"?>
<!-- Created with Inkscape (http://www.inkscape.org/) -->

<svg
   version="1.1"
   id="svg324"
   width="666.6665"
   height="666.66669"
   viewBox="0 0 666.66652 666.66669"
   sodipodi:docname="logo-v2.3.ai"
   xml:space="preserve"
   xmlns:inkscape="http://www.inkscape.org/namespaces/inkscape"
   xmlns:sodipodi="http://sodipodi.sourceforge.net/DTD/sodipodi-0.dtd"
   xmlns="http://www.w3.org/2000/svg"
   xmlns:svg="http://www.w3.org/2000/svg"><defs
     id="defs328"><clipPath
       clipPathUnits="userSpaceOnUse"
       id="clipPath11332"><path
         d="m -398.8721,553.8242 h 1600 v -1200 h -1600 z"
         id="path11334"
         style="stroke-width:0.999998" /></clipPath><clipPath
       clipPathUnits="userSpaceOnUse"
       id="clipPath11348"><path
         d="m -315.5825,692.4385 h 1600 v -1200 h -1600 z"
         id="path11350"
         style="stroke-width:0.999998" /></clipPath></defs><sodipodi:namedview
     id="namedview326"
     pagecolor="#ffffff"
     bordercolor="#000000"
     borderopacity="0.25"
     inkscape:showpageshadow="2"
     inkscape:pageopacity="0.0"
     inkscape:pagecheckerboard="0"
     inkscape:deskcolor="#d1d1d1"
     showgrid="false"
     inkscape:zoom="0.42767743"
     inkscape:cx="2983.557"
     inkscape:cy="701.46326"
     inkscape:window-width="1680"
     inkscape:window-height="1050"
     inkscape:window-x="0"
     inkscape:window-y="0"
     inkscape:window-maximized="0"
     inkscape:current-layer="g398" /><g
     id="g398"
     inkscape:groupmode="layer"
     inkscape:label="Page 2"
     transform="matrix(1.3333333,0,0,-1.3333333,-2725.3331,1600)"
     style="display:inline"><rect
       style="opacity:1;fill:#006afe;fill-opacity:1;stroke:none;stroke-width:2.29394;stroke-dasharray:5.17181, 5.17181;stroke-dashoffset:0;stroke-opacity:1;paint-order:fill markers stroke"
       id="rect154193"
       width="526.77423"
       height="531.56311"
       x="2038.8979"
       y="-1204.7888"
       transform="scale(1,-1)"
       ry="2.9139112e-06" /><g
       id="g153464"
       style="fill:#ffffff;fill-opacity:1"
       transform="matrix(4.5826585,0,0,4.5826585,-5354.1864,-4299.4356)"><g
         id="g153446"
         transform="matrix(0.00109263,-0.40770562,0.40770562,0.00109263,1633.2813,1169.525)"
         clip-path="url(#clipPath11348)"
         style="fill:#ffffff;fill-opacity:1"><path
           d="M 0,0 H 44.507 V 25.155 H 0 c -1.565,0 -2.838,1.275 -2.838,2.84 l -0.013287,57.378009 h -70.227 L -27.992,67.204 V 27.995 C -27.992,12.559 -15.435,0 0,0"
           style="fill:#ffffff;fill-opacity:1;fill-rule:nonzero;stroke:none"
           id="path153444"
           sodipodi:nodetypes="cccsscccsc" /></g><g
         id="g153450"
         transform="matrix(-0.40770436,-0.00148792,0.00148792,-0.40770436,1692.9586,1181.1018)"
         clip-path="url(#clipPath11348)"
         style="fill:#ffffff;fill-opacity:1"><path
           d="M 0,0 H 44.507 V 25.155 H 0 c -1.565,0 -2.838,1.275 -2.838,2.84 l -0.018094,57.378024 h -70.227 L -27.992,67.204 V 27.995 C -27.992,12.559 -15.435,0 0,0"
           style="fill:#ffffff;fill-opacity:1;fill-rule:nonzero;stroke:none"
           id="path153448"
           sodipodi:nodetypes="cccsscccsc" /></g><g
         id="g153454"
         transform="matrix(-6.795974e-4,0.40770653,-0.40770653,-6.795974e-4,1704.4524,1121.4379)"
         clip-path="url(#clipPath11348)"
         style="opacity:1;fill:#ffffff;fill-opacity:1"><path
           d="M 0,0 H 44.507 V 25.155 H 0 c -1.565,0 -2.838,1.275 -2.838,2.84 l -0.00826,57.377998 h -70.227 L -27.992,67.204 V 27.995 C -27.992,12.559 -15.435,0 0,0"
           style="fill:#ffffff;fill-opacity:1;fill-rule:nonzero;stroke:none"
           id="path153452"
           sodipodi:nodetypes="cccsscccsc" /></g><g
         id="g153458"
         transform="matrix(0.4077064,-7.4806683e-4,7.4806683e-4,0.4077064,1644.7214,1109.9616)"
         clip-path="url(#clipPath11348)"
         style="fill:#ffffff;fill-opacity:1"><path
           d="M 0,0 45.158769,0.13159798 V 25.286598 L 0,25.155 c -1.5649934,-0.0046 -2.838,1.275 -2.838,2.84 l 0.0091,57.378 h -70.227 L -27.992,67.204 V 27.995 C -27.992,12.559 -15.435,0 0,0"
           style="fill:#ffffff;fill-opacity:1;fill-rule:nonzero;stroke:none"
           id="path153456"
           sodipodi:nodetypes="cccsscccsc" /></g><g
         id="g153462"
         transform="matrix(0.36973738,0,0,0.36973738,1675.7097,1161.9866)"
         clip-path="url(#clipPath11332)"
         style="fill:#ffffff;fill-opacity:1"><path
           d="M -3.0000001,-1.1290846 V -41.821 L -38.95,-1.5 h -20.198 v -84.319915 h 26.713 V -44.169 L 3.3559999,-85.449 H 23.713 v 84.3199154 z"
           style="fill:#ffffff;fill-opacity:1;fill-rule:nonzero;stroke:none"
           id="path153460"
           sodipodi:nodetypes="ccccccccccc" /></g></g></g></svg>
