<?xml version="1.0" encoding="UTF-8" standalone="no"?>
<!-- Created with Inkscape (http://www.inkscape.org/) -->

<svg
   version="1.1"
   id="svg324"
   width="540.10742"
   height="143.76703"
   viewBox="0 0 540.10743 143.76703"
   sodipodi:docname="logo-v2.3.ai"
   xml:space="preserve"
   xmlns:inkscape="http://www.inkscape.org/namespaces/inkscape"
   xmlns:sodipodi="http://sodipodi.sourceforge.net/DTD/sodipodi-0.dtd"
   xmlns="http://www.w3.org/2000/svg"
   xmlns:svg="http://www.w3.org/2000/svg"><defs
     id="defs328"><clipPath
       clipPathUnits="userSpaceOnUse"
       id="clipPath11332"><path
         d="m -398.8721,553.8242 h 1600 v -1200 h -1600 z"
         id="path11334"
         style="stroke-width:0.999998" /></clipPath><clipPath
       clipPathUnits="userSpaceOnUse"
       id="clipPath11348"><path
         d="m -315.5825,692.4385 h 1600 v -1200 h -1600 z"
         id="path11350"
         style="stroke-width:0.999998" /></clipPath><clipPath
       clipPathUnits="userSpaceOnUse"
       id="clipPath11352"><path
         d="M -1360.9941,569.457 H 239.00592 v -1200 H -1360.9941 Z"
         id="path11354"
         style="stroke-width:0.999998" /></clipPath><clipPath
       clipPathUnits="userSpaceOnUse"
       id="clipPath11356"><path
         d="M -1266.8945,628.3086 H 333.10552 v -1200 H -1266.8945 Z"
         id="path11358"
         style="stroke-width:0.999998" /></clipPath><clipPath
       clipPathUnits="userSpaceOnUse"
       id="clipPath11360"><path
         d="M -1179.6602,551.8535 H 420.33981 v -1200 H -1179.6602 Z"
         id="path11362"
         style="stroke-width:0.999998" /></clipPath><clipPath
       clipPathUnits="userSpaceOnUse"
       id="clipPath11364"><path
         d="M -1071.752,560.5059 H 528.24802 v -1200 H -1071.752 Z"
         id="path11366"
         style="stroke-width:0.999998" /></clipPath><clipPath
       clipPathUnits="userSpaceOnUse"
       id="clipPath11368"><path
         d="M -965.7305,589.2988 H 634.26951 v -1200 H -965.7305 Z"
         id="path11370"
         style="stroke-width:0.999998" /></clipPath><clipPath
       clipPathUnits="userSpaceOnUse"
       id="clipPath11372"><path
         d="M -902.6855,572.4414 H 697.31452 v -1200 H -902.6855 Z"
         id="path11374"
         style="stroke-width:0.999998" /></clipPath><clipPath
       clipPathUnits="userSpaceOnUse"
       id="clipPath11376"><path
         d="M -732.3286,628.3086 H 867.67141 v -1200 H -732.3286 Z"
         id="path11378"
         style="stroke-width:0.999998" /></clipPath></defs><sodipodi:namedview
     id="namedview326"
     pagecolor="#ffffff"
     bordercolor="#000000"
     borderopacity="0.25"
     inkscape:showpageshadow="2"
     inkscape:pageopacity="0.0"
     inkscape:pagecheckerboard="0"
     inkscape:deskcolor="#d1d1d1"
     showgrid="false"
     inkscape:zoom="0.42767743"
     inkscape:cx="2983.557"
     inkscape:cy="701.46326"
     inkscape:window-width="1680"
     inkscape:window-height="1050"
     inkscape:window-x="0"
     inkscape:window-y="0"
     inkscape:window-maximized="0"
     inkscape:current-layer="g398" /><g
     id="g398"
     inkscape:groupmode="layer"
     inkscape:label="Page 2"
     transform="matrix(1.3333333,0,0,-1.3333333,-2153.3331,1599.2169)"
     style="display:inline"><g
       id="g15730"
       transform="matrix(0.35281274,0,0,0.35281274,1537.9679,932.48419)"
       style="fill:#1a1a1a"><g
         id="g15700"
         transform="translate(634.7993,593.2959)"
         style="fill:#1a1a1a"><path
           d="m 0,0 -57.644,66.039 h -20.415 v -111.14 h 26.592 V 22.423 L 6.004,-45.101 H 26.591 V 66.039 H 0 Z"
           style="fill:#1a1a1a;fill-opacity:1;fill-rule:nonzero;stroke:none"
           id="path15698" /></g><g
         id="g15704"
         transform="translate(732.3286,571.6914)"
         clip-path="url(#clipPath11376)"
         style="fill:#1a1a1a"><path
           d="m 0,0 c -1.774,-2.737 -4.262,-4.9 -7.463,-6.49 -3.203,-1.592 -6.921,-2.387 -11.151,-2.387 -3.203,0 -5.892,0.695 -8.063,2.089 -2.175,1.392 -3.26,3.331 -3.26,5.817 0,2.686 0.97,4.748 2.916,6.192 1.944,1.44 4.745,2.461 8.407,3.058 L 2.659,11.582 V 9.025 C 2.659,5.742 1.772,2.734 0,0 m 9.178,56.018 c -6.063,2.484 -13.038,3.728 -20.93,3.728 -6.634,0 -12.754,-0.894 -18.356,-2.685 -5.606,-1.79 -10.409,-4.327 -14.412,-7.608 -4.004,-3.282 -6.921,-7.212 -8.749,-11.785 l 20.587,-8.504 c 1.6,3.58 4.144,6.464 7.635,8.652 3.487,2.188 7.519,3.283 12.094,3.283 4.804,0 8.605,-1.044 11.409,-3.133 2.801,-2.089 4.203,-4.676 4.203,-7.757 v -2.177 l -25.905,-3.641 c -7.436,-0.996 -13.639,-2.686 -18.614,-5.073 -4.975,-2.386 -8.664,-5.347 -11.066,-8.877 -2.402,-3.531 -3.602,-7.584 -3.602,-12.158 0,-4.873 1.313,-9.076 3.945,-12.605 2.63,-3.532 6.404,-6.242 11.323,-8.13 4.916,-1.888 10.749,-2.835 17.499,-2.835 5.032,0 9.607,0.574 13.725,1.716 4.117,1.141 7.832,2.884 11.151,5.221 1.12,0.789 2.205,1.656 3.26,2.586 v -7.732 h 24.018 v 53.705 c 0,5.867 -1.689,11.014 -5.061,15.439 -3.375,4.424 -8.093,7.881 -14.154,10.37"
           style="fill:#1a1a1a;fill-opacity:1;fill-rule:nonzero;stroke:none"
           id="path15702" /></g><g
         id="g15708"
         transform="translate(902.6855,627.5586)"
         clip-path="url(#clipPath11372)"
         style="fill:#1a1a1a"><path
           d="m 0,0 c -5.206,2.586 -11.182,3.879 -17.929,3.879 -7.663,0 -14.354,-1.592 -20.072,-4.774 -3.425,-1.906 -6.367,-4.45 -8.848,-7.603 -1.938,2.806 -4.607,5.225 -8.05,7.23 -5.892,3.432 -12.725,5.147 -20.501,5.147 -7.321,0 -13.613,-1.491 -18.871,-4.475 -3.17,-1.797 -5.621,-4.201 -7.377,-7.188 v 9.873 h -24.019 v -81.452 h 25.734 v 47.588 c 0,3.181 0.657,5.916 1.973,8.205 1.314,2.287 3.2,4.077 5.661,5.371 2.458,1.291 5.345,1.939 8.664,1.939 3.431,0 6.348,-0.648 8.749,-1.939 2.403,-1.294 4.26,-3.084 5.576,-5.371 1.314,-2.289 1.973,-5.024 1.973,-8.205 v -47.588 h 25.733 v 47.588 c 0,3.181 0.658,5.916 1.973,8.205 1.314,2.287 3.201,4.077 5.662,5.371 2.458,1.291 5.345,1.939 8.663,1.939 3.432,0 6.348,-0.648 8.75,-1.939 2.402,-1.294 4.26,-3.084 5.576,-5.371 1.313,-2.289 1.973,-5.024 1.973,-8.205 v -47.588 h 25.734 v 52.362 c 0,6.165 -1.488,11.562 -4.461,16.187 C 9.29,-6.19 5.202,-2.587 0,0"
           style="fill:#1a1a1a;fill-opacity:1;fill-rule:nonzero;stroke:none"
           id="path15706" /></g><g
         id="g15712"
         transform="translate(965.7305,610.7012)"
         clip-path="url(#clipPath11368)"
         style="fill:#1a1a1a"><path
           d="m 0,0 c 3.2,1.889 7.034,2.835 11.494,2.835 4.573,0 8.434,-0.97 11.58,-2.909 3.145,-1.94 5.346,-4.576 6.606,-7.906 0.437,-1.161 0.719,-2.381 0.866,-3.656 h -38.86 c 0.295,1.155 0.66,2.253 1.108,3.282 C -5.605,-4.676 -3.203,-1.89 0,0 m 45.72,9.101 c -3.946,3.678 -8.779,6.538 -14.496,8.578 -5.721,2.037 -12.296,3.057 -19.73,3.057 -8.921,0 -16.928,-1.841 -24.017,-5.519 -7.094,-3.68 -12.726,-8.703 -16.9,-15.067 -4.176,-6.367 -6.262,-13.627 -6.262,-21.781 0,-7.857 2,-15.017 6.005,-21.482 4.002,-6.466 9.663,-11.613 16.985,-15.44 7.317,-3.83 15.955,-5.744 25.905,-5.744 6.403,0 12.293,0.82 17.67,2.462 5.375,1.642 10.036,3.953 13.982,6.937 3.947,2.984 6.833,6.463 8.664,10.443 l -20.587,8.503 c -1.831,-2.786 -4.375,-4.974 -7.634,-6.564 -3.26,-1.591 -7.179,-2.386 -11.752,-2.386 -5.034,0 -9.324,0.968 -12.866,2.908 -3.547,1.939 -6.177,4.648 -7.893,8.131 -0.884,1.793 -1.474,3.734 -1.781,5.818 h 65.601 c 0.455,1.093 0.772,2.41 0.944,3.953 0.171,1.541 0.257,3.108 0.257,4.699 0,5.668 -1.03,10.914 -3.088,15.739 C 52.668,1.168 49.666,5.42 45.72,9.101"
           style="fill:#1a1a1a;fill-opacity:1;fill-rule:nonzero;stroke:none"
           id="path15710" /></g><g
         id="g15716"
         transform="translate(1071.752,639.4941)"
         clip-path="url(#clipPath11364)"
         style="fill:#1a1a1a"><path
           d="m 0,0 c 2.745,0.992 5.889,1.491 9.436,1.491 6.175,0 11.666,-1.468 16.469,-4.401 4.804,-2.934 8.407,-6.988 10.808,-12.158 l 21.616,8.504 c -2.401,5.867 -5.977,10.89 -10.722,15.067 -4.748,4.177 -10.379,7.407 -16.898,9.696 -6.52,2.287 -13.612,3.432 -21.273,3.432 -8.694,0 -16.384,-1.395 -23.076,-4.178 -6.69,-2.785 -11.896,-6.664 -15.611,-11.636 -3.718,-4.973 -5.575,-10.741 -5.575,-17.304 0,-7.459 2.573,-13.851 7.72,-19.17 5.146,-5.322 12.807,-9.424 22.988,-12.308 l 25.048,-7.16 c 3.886,-1.096 6.747,-2.563 8.578,-4.401 1.828,-1.841 2.745,-4.054 2.745,-6.638 0,-2.388 -0.745,-4.453 -2.231,-6.191 -1.488,-1.743 -3.546,-3.11 -6.175,-4.103 -2.633,-0.995 -5.778,-1.492 -9.437,-1.492 -6.862,0 -13.124,1.739 -18.785,5.221 -5.661,3.481 -10.095,8.254 -13.296,14.322 l -21.788,-8.503 c 2.515,-6.366 6.318,-11.887 11.409,-16.56 5.088,-4.676 11.152,-8.28 18.185,-10.815 7.034,-2.536 14.553,-3.805 22.56,-3.805 9.034,0 16.954,1.418 23.761,4.252 6.803,2.834 12.151,6.762 16.04,11.785 3.888,5.022 5.833,10.765 5.833,17.231 0,7.459 -2.546,13.773 -7.634,18.946 -5.091,5.17 -12.781,9.198 -23.075,12.083 L 3.088,-21.93 c -3.89,1.093 -6.807,2.611 -8.75,4.55 -1.945,1.939 -2.916,4.2 -2.916,6.788 0,2.387 0.742,4.498 2.23,6.34 C -4.863,-2.413 -2.745,-0.996 0,0"
           style="fill:#1a1a1a;fill-opacity:1;fill-rule:nonzero;stroke:none"
           id="path15714" /></g><g
         id="g15720"
         transform="translate(1179.6602,648.1465)"
         clip-path="url(#clipPath11360)"
         style="fill:#1a1a1a"><path
           d="m 0,0 h -25.734 v -5.968 c 0,-4.177 -1.287,-7.309 -3.86,-9.398 -2.574,-2.089 -6.262,-3.133 -11.065,-3.133 h -0.859 v -19.394 h 15.784 v -32.67 c 0,-9.547 3.115,-16.984 9.35,-22.302 6.233,-5.323 15.011,-7.982 26.334,-7.982 1.944,0 4.002,0.101 6.176,0.298 2.172,0.201 4.117,0.399 5.833,0.598 v 18.945 c -1.145,-0.099 -2.23,-0.2 -3.26,-0.299 -1.029,-0.099 -1.946,-0.148 -2.745,-0.148 -3.546,0 -6.518,0.447 -8.921,1.343 -2.401,0.895 -4.176,2.26 -5.318,4.102 C 0.57,-74.169 0,-71.856 0,-69.071 v 31.178 h 21.959 v 19.394 H 0 Z"
           style="fill:#1a1a1a;fill-opacity:1;fill-rule:nonzero;stroke:none"
           id="path15718" /></g><g
         id="g15724"
         transform="translate(1266.8945,571.6914)"
         clip-path="url(#clipPath11356)"
         style="fill:#1a1a1a"><path
           d="m 0,0 c -1.774,-2.737 -4.262,-4.9 -7.462,-6.49 -3.204,-1.592 -6.922,-2.387 -11.151,-2.387 -3.204,0 -5.893,0.695 -8.064,2.089 -2.174,1.392 -3.26,3.331 -3.26,5.817 0,2.686 0.971,4.748 2.917,6.192 1.944,1.44 4.745,2.461 8.407,3.058 L 2.659,11.582 V 9.025 C 2.659,5.742 1.772,2.734 0,0 m 9.179,56.018 c -6.064,2.484 -13.038,3.728 -20.93,3.728 -6.635,0 -12.755,-0.894 -18.357,-2.685 -5.605,-1.79 -10.409,-4.327 -14.411,-7.608 -4.004,-3.282 -6.921,-7.212 -8.75,-11.785 l 20.587,-8.504 c 1.601,3.58 4.145,6.464 7.635,8.652 3.487,2.188 7.519,3.283 12.095,3.283 4.804,0 8.604,-1.044 11.408,-3.133 2.802,-2.089 4.203,-4.676 4.203,-7.757 v -2.177 l -25.905,-3.641 c -7.436,-0.996 -13.639,-2.686 -18.613,-5.073 -4.976,-2.386 -8.664,-5.347 -11.067,-8.877 -2.401,-3.531 -3.602,-7.584 -3.602,-12.158 0,-4.873 1.313,-9.076 3.946,-12.605 2.63,-3.532 6.403,-6.242 11.322,-8.13 4.917,-1.888 10.75,-2.835 17.499,-2.835 5.032,0 9.608,0.574 13.725,1.716 4.118,1.141 7.833,2.884 11.151,5.221 1.12,0.789 2.204,1.656 3.26,2.586 v -7.732 h 24.019 v 53.705 c 0,5.867 -1.69,11.014 -5.062,15.439 -3.375,4.424 -8.093,7.881 -14.153,10.37"
           style="fill:#1a1a1a;fill-opacity:1;fill-rule:nonzero;stroke:none"
           id="path15722" /></g><g
         id="g15728"
         transform="translate(1360.9941,630.543)"
         clip-path="url(#clipPath11352)"
         style="fill:#1a1a1a"><path
           d="m 0,0 c -6.52,0 -12.154,-1.219 -16.898,-3.655 -3.611,-1.854 -6.438,-4.993 -8.493,-9.406 v 12.165 h -24.018 v -81.452 h 25.734 v 43.86 c 0,6.064 1.944,10.763 5.832,14.097 3.888,3.33 8.978,4.997 15.27,4.997 H 5.489 V 0 Z"
           style="fill:#1a1a1a;fill-opacity:1;fill-rule:nonzero;stroke:none"
           id="path15726" /></g></g><g
       id="g104491"
       style="fill:#006afe;fill-opacity:1"><g
         id="g60603"
         transform="matrix(0.00109263,-0.40770562,0.40770562,0.00109263,1633.2813,1169.525)"
         clip-path="url(#clipPath11348)"
         style="fill:#006afe;fill-opacity:1"><path
           d="M 0,0 H 44.507 V 25.155 H 0 c -1.565,0 -2.838,1.275 -2.838,2.84 l -0.013287,57.378009 h -70.227 L -27.992,67.204 V 27.995 C -27.992,12.559 -15.435,0 0,0"
           style="fill:#006afe;fill-opacity:1;fill-rule:nonzero;stroke:none"
           id="path60601"
           sodipodi:nodetypes="cccsscccsc" /></g><g
         id="g60607"
         transform="matrix(-0.40770436,-0.00148792,0.00148792,-0.40770436,1692.9586,1181.1018)"
         clip-path="url(#clipPath11348)"
         style="fill:#006afe;fill-opacity:1"><path
           d="M 0,0 H 44.507 V 25.155 H 0 c -1.565,0 -2.838,1.275 -2.838,2.84 l -0.018094,57.378024 h -70.227 L -27.992,67.204 V 27.995 C -27.992,12.559 -15.435,0 0,0"
           style="fill:#006afe;fill-opacity:1;fill-rule:nonzero;stroke:none"
           id="path60605"
           sodipodi:nodetypes="cccsscccsc" /></g><g
         id="g60611"
         transform="matrix(-6.795974e-4,0.40770653,-0.40770653,-6.795974e-4,1704.4524,1121.4379)"
         clip-path="url(#clipPath11348)"
         style="opacity:1;fill:#006afe;fill-opacity:1"><path
           d="M 0,0 H 44.507 V 25.155 H 0 c -1.565,0 -2.838,1.275 -2.838,2.84 l -0.00826,57.377998 h -70.227 L -27.992,67.204 V 27.995 C -27.992,12.559 -15.435,0 0,0"
           style="fill:#006afe;fill-opacity:1;fill-rule:nonzero;stroke:none"
           id="path60609"
           sodipodi:nodetypes="cccsscccsc" /></g><g
         id="g60615"
         transform="matrix(0.4077064,-7.4806683e-4,7.4806683e-4,0.4077064,1644.7214,1109.9616)"
         clip-path="url(#clipPath11348)"
         style="fill:#006afe;fill-opacity:1"><path
           d="M 0,0 45.158769,0.13159798 V 25.286598 L 0,25.155 c -1.5649934,-0.0046 -2.838,1.275 -2.838,2.84 l 0.0091,57.378 h -70.227 L -27.992,67.204 V 27.995 C -27.992,12.559 -15.435,0 0,0"
           style="fill:#006afe;fill-opacity:1;fill-rule:nonzero;stroke:none"
           id="path60613"
           sodipodi:nodetypes="cccsscccsc" /></g><g
         id="g60619"
         transform="matrix(0.36973738,0,0,0.36973738,1675.7097,1161.9866)"
         clip-path="url(#clipPath11332)"
         style="fill:#006afe;fill-opacity:1"><path
           d="M -3.0000001,-1.1290846 V -41.821 L -38.95,-1.5 h -20.198 v -84.319915 h 26.713 V -44.169 L 3.3559999,-85.449 H 23.713 v 84.3199154 z"
           style="fill:#006afe;fill-opacity:1;fill-rule:nonzero;stroke:none"
           id="path60617"
           sodipodi:nodetypes="ccccccccccc" /></g></g></g></svg>
